<?xml version="1.0" encoding="utf-8"?>
<!-- Generator: Adobe Illustrator 22.1.0, SVG Export Plug-In . SVG Version: 6.00 Build 0)  -->
<svg version="1.1" id="图层_1" xmlns="http://www.w3.org/2000/svg" xmlns:xlink="http://www.w3.org/1999/xlink" x="0px" y="0px"
	 viewBox="0 0 410 85" style="enable-background:new 0 0 410 85;" xml:space="preserve">
<style type="text/css">
	.st0{fill-rule:evenodd;clip-rule:evenodd;fill:#A9CE45;}
	.st1{fill-rule:evenodd;clip-rule:evenodd;fill:#1F2C5C;}
</style>
<path class="st0" d="M93.4,9.5c0-4.9,4-8.8,8.8-8.8s8.8,4,8.8,8.8c0,4.9-4,8.8-8.8,8.8S93.4,14.4,93.4,9.5z"/>
<g>
	<path class="st1" d="M42.5,48.1v-3.9c0-13.5-5-19.2-19.7-19.2c-15,0-22.4,6.7-22.4,21.2v18.3c0,13.5,5.4,21.2,21.1,21.2
		c17.1,0,21.3-7.3,21.3-18.7v-6.1H28v6.1c0,4.1-0.4,6.7-5.8,6.7c-4.1,0-5.6-2.2-5.6-5.9l0.1-23.9c0-4.3,1.2-7,6-6.9c2.9,0,5,2,5,6.5
		v4.6H42.5L42.5,48.1z M48.1,39.8L48.1,39.8h12.2V84h15.6V39.8h12.6V26.5H48.1V39.8L48.1,39.8z M110.5,26.5L110.5,26.5H94.9V84h15.6
		V26.5L110.5,26.5z M110.5,84L110.5,84V26.5V84z"/>
</g>
<path class="st1" d="M310.2,34.5l-1.6,7.1h18.1l-1.5-7.1H310.2L310.2,34.5z M307.1,48.2L307.1,48.2l-0.9,3.7h-7.9l2.4-10.3h-6.4
	c0.9,8,5.6,16.4,5.6,16.4v11.2c0,0-4.1-5.5-6.5-11.6v25.2h-7.8v-23c-2,9.4-9.2,18.8-9.2,18.8V67.3l0.1-0.3c4-9.1,6.5-17.5,7-25.4h-6
	V34h8v-6.6h7.8V34h8v4.6c1-4.2,1.9-8,2-8.5c0.3-1.3,1.4-1.9,2.1-2.1c0.3-0.1,0.7-0.1,0.9-0.2c0.2,0,0.3,0,0.4,0h22.1
	c1.4,0,2.3,0.7,2.8,1.5c0.2,0.4,0.3,0.7,0.4,0.9c0.1,0.2,0.1,0.3,0.1,0.4l4.5,21.2h-7.9l-0.8-3.7H307.1L307.1,48.2z M364.6,50.2
	L364.6,50.2v8.1c-7.4-3.3-11.9-6.3-11.9-6.3v-8.6C359.2,48.1,364.6,50.2,364.6,50.2L364.6,50.2z M364.6,33.9L364.6,33.9V42
	c-7.4-3.3-11.9-6.3-11.9-6.3v-8.6C359.2,31.8,364.6,33.9,364.6,33.9L364.6,33.9z M352.7,83.4L352.7,83.4v-9.3
	c5.2-4.2,9.2-8.1,11.9-11.8v10.4C361.5,76.4,357.5,79.9,352.7,83.4L352.7,83.4z M393.3,82.8L393.3,82.8c-3.9-0.3-9.4-3.1-13-7.7
	c-4,4.9-10.5,7.4-14,7.7l-1.5,0.2v-6.8l1.2-0.2c3.8-0.6,10.8-5.2,10.8-10.5V65v-1.4V38.4h7.1v25.2V65c0,5.1,4.7,10,9.8,10.9l1.1,0.2
	v6.8L393.3,82.8L393.3,82.8z M403.5,76.1L403.5,76.1l0-48.7h7.2v51.2c0,2.4-1.7,4.2-4.2,4.2h-9.4v-6.7h6.1H403.5L403.5,76.1z
	 M402,68.9L402,68.9V29h-7.2v39.9H402L402,68.9z M373.9,69L373.9,69l0-32.5h12V69h7.1V31.5c0-1.7-0.9-2.5-2.6-2.5h-21.2
	c-1.6,0-2.5,0.9-2.5,2.5V69H373.9L373.9,69z M214.1,50.2L214.1,50.2v8.1c-7.4-3.3-11.9-6.3-11.9-6.3v-8.6
	C208.7,48.1,214.1,50.2,214.1,50.2L214.1,50.2z M214.1,33.9L214.1,33.9V42c-7.4-3.3-11.9-6.3-11.9-6.3v-8.6
	C208.7,31.8,214.1,33.9,214.1,33.9L214.1,33.9z M202.2,83.4L202.2,83.4v-9.3c5.2-4.2,9.2-8.1,11.9-11.8v10.4
	C211,76.4,207,79.9,202.2,83.4L202.2,83.4z M242.9,82.8L242.9,82.8c-3.9-0.3-9.4-3.1-13-7.7c-4,4.9-10.5,7.4-14,7.7l-1.5,0.2v-6.8
	l1.2-0.2c3.8-0.6,10.8-5.2,10.8-10.5V65v-1.4V38.4h7.1v25.2V65c0,5.1,4.7,10,9.8,10.9l1.1,0.2v6.8L242.9,82.8L242.9,82.8z
	 M253.1,76.1L253.1,76.1V27.4h7.2v51.2c0,2.4-1.7,4.2-4.2,4.2h-9.4v-6.7h6.1H253.1L253.1,76.1z M251.6,68.9L251.6,68.9V29h-7.2v39.9
	H251.6L251.6,68.9z M223.4,69L223.4,69V36.5h12V69h7.1V31.5c0-1.7-0.9-2.5-2.6-2.5h-21.3c-1.6,0-2.5,0.9-2.5,2.5V69H223.4L223.4,69z
	 M327.3,75.8L327.3,75.8c5.2-9.8,8.9-21.2,8.9-21.2h-7.7c0,0-2.2,6.6-4.1,10.4l-3.7-10.1h-7.7l6.8,18.7c-0.5,0.8-1,1.6-1.5,2.3h-20
	v6.7h37.9v-6.7H327.3L327.3,75.8z M308.4,54.8L308.4,54.8h-7.9l6.6,18.7h7.9L308.4,54.8L308.4,54.8z M149.9,38.1L149.9,38.1
	c2.9-0.2,5.9-0.5,9-0.9v-9.8h7.8V36c5.9-1.1,12-2.7,18.1-4.8l1.8-0.6V38l-0.9,0.3c-5.2,2.1-12,3.8-19.1,5v9.5c0,0.5-0.2,2.9,2.7,2.9
	h17.3v7.1h-18.9c-7.4,0-8.9-3.8-8.9-7.9V44.5c-3,0.4-6,0.7-8.8,0.9l-1.5,0.1v-7.4L149.9,38.1L149.9,38.1z M141.5,27.4L141.5,27.4
	c0,0-5.8,7-13.5,10.4l0,8.6c0,0,3.8-1.9,7.5-4.2v20.7h7.8V36.4c4.7-3.5,6.7-9,6.7-9H141.5L141.5,27.4z M161,82.8L161,82.8h-7.8v-7.7
	H128v-7.2h25.3v-4.9h7.8v4.9h25.6v7.2H161V82.8z"/>
</svg>
